<svg width="440" height="221" viewBox="0 0 440 221" fill="none" xmlns="http://www.w3.org/2000/svg">
<rect x="101.428" y="220.895" width="240" height="8" transform="rotate(-115 101.428 220.895)" fill="currentColor"/>
<rect x="122.107" y="220.895" width="240" height="8" transform="rotate(-115 122.107 220.895)" fill="currentColor"/>
<rect x="142.786" y="220.895" width="240" height="8" transform="rotate(-115 142.786 220.895)" fill="currentColor"/>
<rect x="163.465" y="220.895" width="240" height="8" transform="rotate(-115 163.465 220.895)" fill="currentColor"/>
<rect x="184.144" y="220.895" width="240" height="8" transform="rotate(-115 184.144 220.895)" fill="currentColor"/>
<rect x="204.823" y="220.895" width="240" height="8" transform="rotate(-115 204.823 220.895)" fill="currentColor"/>
<rect x="225.501" y="220.895" width="240" height="8" transform="rotate(-115 225.501 220.895)" fill="currentColor"/>
<rect x="246.18" y="220.895" width="240" height="8" transform="rotate(-115 246.18 220.895)" fill="currentColor"/>
<rect x="266.859" y="220.895" width="240" height="8" transform="rotate(-115 266.859 220.895)" fill="currentColor"/>
<rect x="287.538" y="220.895" width="240" height="8" transform="rotate(-115 287.538 220.895)" fill="currentColor"/>
<rect x="308.217" y="220.895" width="240" height="8" transform="rotate(-115 308.217 220.895)" fill="currentColor"/>
<rect x="328.896" y="220.895" width="240" height="8" transform="rotate(-115 328.896 220.895)" fill="currentColor"/>
<rect x="349.575" y="220.895" width="240" height="8" transform="rotate(-115 349.575 220.895)" fill="currentColor"/>
<rect x="370.253" y="220.895" width="240" height="8" transform="rotate(-115 370.253 220.895)" fill="currentColor"/>
<rect x="390.932" y="220.895" width="240" height="8" transform="rotate(-115 390.932 220.895)" fill="currentColor"/>
<rect x="411.611" y="220.895" width="240" height="8" transform="rotate(-115 411.611 220.895)" fill="currentColor"/>
<rect x="432.29" y="220.895" width="240" height="8" transform="rotate(-115 432.29 220.895)" fill="currentColor"/>
</svg>
