<svg width="272" height="272" viewBox="0 0 272 272" fill="none" xmlns="http://www.w3.org/2000/svg">
<g clip-path="url(#clip0_9375_15220)">
<path d="M174.715 106.784C175.565 106.784 176.463 106.732 177.314 106.784C180.386 106.889 182.371 108.878 182.608 112.176C182.75 114.584 182.75 117.045 182.608 119.505C182.419 122.751 180.481 124.792 177.598 125.002C175.471 125.159 173.344 125.159 171.217 125.002C168.286 124.792 166.3 122.437 166.159 119.191C166.064 117.254 166.111 115.369 166.159 113.432C166.206 109.088 168.239 106.837 172.115 106.784C172.966 106.732 173.816 106.784 174.715 106.784Z" fill="#2A38D8"/>
<path d="M173.278 186.243C172.323 186.243 171.327 186.324 170.372 186.243C168.255 186.001 166.552 184.628 166.303 182.568C166.054 180.468 166.054 178.287 166.22 176.147C166.428 173.966 168.005 172.431 170.247 172.189C172.282 171.987 174.399 171.947 176.434 172.149C178.51 172.351 180.171 173.563 180.42 175.662C180.711 177.964 180.711 180.347 180.42 182.649C180.129 184.871 178.427 186.082 176.102 186.284C175.188 186.324 174.234 186.243 173.278 186.243Z" fill="#2A38D8"/>
<path d="M104.958 159.732C104.219 159.732 103.438 159.732 102.699 159.732C99.7012 159.641 97.8122 157.715 97.6481 154.415C97.5656 152.581 97.5656 150.748 97.6481 148.914C97.7709 145.934 99.455 143.871 102.083 143.597C103.89 143.413 105.779 143.413 107.586 143.597C110.174 143.826 111.775 145.751 112.022 148.685C112.145 150.427 112.145 152.169 112.063 153.957C111.899 157.899 110.133 159.732 106.601 159.778C106.067 159.732 105.492 159.732 104.958 159.732Z" fill="#2A38D8"/>
<path d="M166.123 157.682C166.123 156.855 166.081 155.983 166.123 155.157C166.287 151.852 168.096 149.786 171.057 149.648C172.537 149.557 174.059 149.557 175.58 149.648C178.664 149.786 180.515 151.898 180.597 155.341C180.638 157.085 180.679 158.829 180.556 160.62C180.391 163.649 178.705 165.531 175.991 165.807C174.511 165.944 172.99 165.899 171.509 165.853C167.891 165.761 166.287 163.971 166.163 159.977C166.123 159.197 166.163 158.462 166.123 157.682Z" fill="#2A38D8"/>
<path d="M141.193 148.645C141.193 147.763 141.193 146.932 141.193 146.05C141.24 141.587 143.284 139.407 147.324 139.407C148.892 139.407 150.46 139.356 152.076 139.407C155.403 139.511 157.589 141.795 157.732 145.324C157.827 147.452 157.827 149.631 157.732 151.759C157.589 155.08 155.831 157.208 152.742 157.571C150.888 157.779 148.939 157.779 147.086 157.675C143.094 157.467 141.288 155.288 141.24 150.928C141.193 150.202 141.193 149.423 141.193 148.645Z" fill="#2A38D8"/>
<path d="M203.382 128.348C203.382 129.233 203.43 130.079 203.382 130.964C203.193 133.258 201.532 134.949 198.828 135.151C196.409 135.352 193.943 135.352 191.523 135.151C188.772 134.949 187.017 133.178 186.922 130.803C186.827 129.193 186.874 127.583 186.922 125.973C187.017 123.236 188.914 121.384 192.093 121.143C194.132 120.982 196.219 120.982 198.259 121.143C201.532 121.384 203.335 123.156 203.477 125.933C203.43 126.738 203.382 127.543 203.382 128.348Z" fill="#2A38D8"/>
<path d="M150.391 135.202C149.165 135.202 147.886 135.295 146.659 135.202C143.728 134.97 141.649 133.343 141.382 130.787C141.169 128.417 141.116 126.001 141.329 123.584C141.595 120.888 143.941 119.123 147.032 119.03C149.325 118.983 151.67 118.937 153.963 119.03C157.054 119.123 159.346 120.935 159.666 123.631C159.879 125.629 159.933 127.674 159.826 129.672C159.613 133.529 157.481 135.202 153.056 135.295C152.15 135.295 151.297 135.295 150.391 135.295C150.391 135.249 150.391 135.202 150.391 135.202Z" fill="#2A38D8"/>
<path d="M149.469 178.102C148.52 178.102 147.571 178.149 146.623 178.102C143.493 177.962 141.407 176.102 141.264 173.031C141.169 171.03 141.169 168.983 141.264 166.982C141.407 163.958 143.493 161.958 146.575 161.864C148.473 161.818 150.369 161.818 152.267 161.864C155.681 161.958 157.625 163.912 157.768 167.308C157.815 168.936 157.815 170.565 157.768 172.193C157.673 176.241 155.776 178.102 151.602 178.149C150.891 178.149 150.18 178.102 149.469 178.102Z" fill="#2A38D8"/>
<path d="M134.923 162.869C134.923 163.803 134.964 164.778 134.923 165.712C134.756 168.028 133.053 169.775 130.686 169.897C128.775 170.019 126.822 170.019 124.87 169.897C122.336 169.734 120.633 168.028 120.509 165.55C120.426 163.722 120.384 161.894 120.509 160.066C120.675 157.507 122.42 155.881 125.078 155.76C126.615 155.678 128.11 155.719 129.647 155.719C133.219 155.76 134.923 157.466 134.964 161C134.964 161.65 134.964 162.259 134.923 162.869Z" fill="#2A38D8"/>
<path d="M195.211 139.489C196.255 139.489 197.252 139.436 198.296 139.489C201.002 139.646 203.139 141.63 203.329 144.607C203.518 147.167 203.518 149.831 203.376 152.39C203.186 155.419 201.192 157.508 198.438 157.665C196.302 157.769 194.166 157.769 192.077 157.665C189.087 157.508 186.998 155.106 186.903 151.763C186.855 149.935 186.855 148.107 186.903 146.279C186.903 141.735 188.991 139.436 193.169 139.384C193.786 139.436 194.498 139.436 195.211 139.489Z" fill="#2A38D8"/>
<path d="M195.273 161.876C196.317 161.876 197.313 161.829 198.357 161.876C201.204 162.062 203.245 163.967 203.387 166.754C203.53 168.938 203.482 171.075 203.387 173.258C203.245 175.953 201.299 177.858 198.547 178.044C196.364 178.183 194.134 178.183 191.904 178.044C189.105 177.905 187.064 175.86 186.922 173.073C186.827 171.121 186.874 169.216 186.922 167.265C187.017 164.059 189.105 161.969 192.426 161.83C193.375 161.83 194.324 161.876 195.273 161.876Z" fill="#2A38D8"/>
<path d="M112.079 89.3675C112.079 90.2615 112.12 91.1149 112.079 92.0091C111.953 94.5691 110.453 96.235 107.869 96.4383C105.869 96.601 103.827 96.601 101.868 96.479C99.2429 96.2757 97.7007 94.6098 97.6177 92.0899C97.576 90.3834 97.576 88.7174 97.6177 87.0106C97.7007 84.2067 99.4097 82.5 102.327 82.3374C103.66 82.2562 104.952 82.2968 106.286 82.2968C110.412 82.3374 112.12 83.9629 112.12 87.9453C112.079 88.4329 112.079 88.9205 112.079 89.3675Z" fill="#2A38D8"/>
<path d="M104.773 102.698C105.721 102.698 106.71 102.651 107.658 102.698C110.09 102.884 111.903 104.89 112.027 107.641C112.151 109.74 112.151 111.838 112.027 113.937C111.903 116.781 110.049 118.787 107.494 118.926C105.721 119.02 103.908 119.02 102.136 118.926C99.5804 118.787 97.8909 116.968 97.6846 114.123C97.5613 112.118 97.5613 110.066 97.6433 108.061C97.8084 104.61 99.5392 102.791 102.672 102.698C103.413 102.698 104.073 102.698 104.773 102.698Z" fill="#2A38D8"/>
<path d="M104.762 139.349C103.812 139.349 102.821 139.442 101.871 139.349C99.5995 139.163 97.9063 137.537 97.7409 134.982C97.5346 132.52 97.5346 130.011 97.7409 127.595C97.9063 125.133 99.6408 123.367 101.871 123.181C103.771 123.042 105.712 123.042 107.653 123.181C110.173 123.367 111.948 125.504 112.073 128.385C112.155 130.011 112.114 131.637 112.073 133.263C112.073 137.444 110.379 139.349 106.662 139.396C106.001 139.396 105.382 139.396 104.762 139.349Z" fill="#2A38D8"/>
<path d="M104.742 76.1255C103.832 76.1255 102.963 76.172 102.052 76.1255C99.5684 75.9396 97.8716 74.2671 97.7061 71.4795C97.5407 69.2494 97.5407 66.9729 97.7061 64.7428C97.9129 61.8623 99.6101 60.0504 102.135 59.911C103.915 59.8181 105.736 59.8181 107.515 59.911C110.164 60.0504 111.944 62.1411 112.068 65.1609C112.151 66.7871 112.109 68.4131 112.068 70.0392C112.026 74.1742 110.288 76.079 106.605 76.1255C105.984 76.172 105.363 76.172 104.742 76.1255C104.742 76.172 104.742 76.172 104.742 76.1255Z" fill="#2A38D8"/>
<path d="M105.992 165.959C107.036 165.959 108.033 165.913 109.076 165.959C111.924 166.145 113.964 168.05 114.107 170.838C114.249 173.021 114.201 175.158 114.107 177.342C113.964 180.037 112.019 181.942 109.266 182.127C107.084 182.267 104.854 182.267 102.623 182.127C99.8235 181.988 97.7835 179.944 97.6411 177.156C97.5459 175.205 97.5935 173.3 97.6411 171.349C97.7359 168.143 99.8235 166.052 103.145 165.913C104.094 165.913 105.043 165.959 105.992 165.959Z" fill="#2193F7"/>
<path d="M83.1485 47.6466C84.1925 47.6466 85.189 47.6001 86.233 47.6466C89.0799 47.8324 91.1204 49.7373 91.2627 52.5249C91.4051 54.7085 91.3575 56.8456 91.2627 59.0292C91.1204 61.7239 89.1747 63.6287 86.4225 63.8146C84.2401 63.954 82.0097 63.954 79.7793 63.8146C76.98 63.6752 74.9396 61.631 74.7972 58.8434C74.7025 56.8921 74.7496 54.9872 74.7972 53.0359C74.892 49.8302 76.98 47.7395 80.3016 47.6001C81.2504 47.6001 82.1997 47.6001 83.1485 47.6466Z" fill="#2193F7"/>
<path d="M83.1531 68.046C84.1971 68.046 85.1936 67.9995 86.2376 68.046C89.0845 68.2318 91.125 70.1367 91.2673 72.9243C91.4097 75.1079 91.3621 77.245 91.2673 79.4287C91.125 82.1234 89.1793 84.0282 86.4271 84.214C84.2443 84.3534 82.0143 84.3534 79.7839 84.214C76.9846 84.0747 74.9441 82.0304 74.8018 79.2428C74.7066 77.2915 74.7542 75.3867 74.8018 73.4354C74.8965 70.2296 76.9846 68.1389 80.3062 67.9995C81.255 67.9995 82.2038 68.046 83.1531 68.046Z" fill="#2193F7"/>
<path d="M83.1531 90.4767C84.1971 90.4767 85.1936 90.436 86.2376 90.4767C89.0845 90.6393 91.125 92.3061 91.2673 94.7455C91.4097 96.6558 91.3621 98.5259 91.2673 100.437C91.125 102.794 89.1793 104.461 86.4271 104.624C84.2443 104.746 82.0143 104.746 79.7839 104.624C76.9846 104.502 74.9441 102.713 74.8018 100.274C74.7066 98.5666 74.7542 96.8998 74.8018 95.1924C74.8965 92.3874 76.9846 90.558 80.3062 90.436C81.255 90.436 82.2038 90.4767 83.1531 90.4767Z" fill="#2193F7"/>
<path d="M83.1485 110.891C84.1925 110.891 85.189 110.844 86.233 110.891C89.0799 111.077 91.1204 112.981 91.2627 115.769C91.4051 117.952 91.3575 120.09 91.2627 122.273C91.1204 124.968 89.1747 126.873 86.4225 127.059C84.2401 127.198 82.0097 127.198 79.7793 127.059C76.98 126.919 74.9396 124.875 74.7972 122.087C74.7025 120.136 74.7496 118.231 74.7972 116.28C74.892 113.074 76.98 110.983 80.3016 110.844C81.2504 110.844 82.1997 110.891 83.1485 110.891Z" fill="#2193F7"/>
<path d="M83.1531 131.272C84.1971 131.272 85.1936 131.226 86.2376 131.272C89.0845 131.459 91.125 133.363 91.2673 136.151C91.4097 138.334 91.3621 140.472 91.2673 142.655C91.125 145.35 89.1793 147.255 86.4271 147.441C84.2443 147.58 82.0143 147.58 79.7839 147.441C76.9846 147.301 74.9441 145.257 74.8018 142.47C74.7066 140.518 74.7542 138.613 74.8018 136.662C74.8965 133.456 76.9846 131.366 80.3062 131.226C81.255 131.226 82.2038 131.272 83.1531 131.272Z" fill="#2193F7"/>
<path d="M128.836 135.359C129.88 135.359 130.876 135.318 131.92 135.359C134.767 135.521 136.808 137.188 136.95 139.627C137.093 141.538 137.045 143.408 136.95 145.319C136.808 147.676 134.863 149.343 132.11 149.506C129.928 149.628 127.697 149.628 125.467 149.506C122.668 149.384 120.627 147.595 120.485 145.156C120.39 143.448 120.437 141.782 120.485 140.074C120.58 137.269 122.668 135.44 125.989 135.318C126.938 135.318 127.887 135.359 128.836 135.359Z" fill="#2193F7"/>
<path d="M128.836 114.96C129.88 114.96 130.876 114.919 131.92 114.96C134.767 115.122 136.808 116.789 136.95 119.228C137.093 121.139 137.045 123.008 136.95 124.919C136.808 127.277 134.863 128.944 132.11 129.107C129.928 129.228 127.697 129.228 125.467 129.107C122.668 128.985 120.627 127.196 120.485 124.757C120.39 123.049 120.437 121.383 120.485 119.675C120.58 116.87 122.668 115.041 125.989 114.919C126.938 114.919 127.887 114.96 128.836 114.96Z" fill="#2193F7"/>
<path d="M128.836 94.5597C129.88 94.5597 130.876 94.519 131.92 94.5597C134.767 94.7224 136.808 96.3891 136.95 98.8285C137.093 100.739 137.045 102.609 136.95 104.52C136.808 106.877 134.863 108.544 132.11 108.707C129.928 108.829 127.697 108.829 125.467 108.707C122.668 108.585 120.627 106.796 120.485 104.357C120.39 102.65 120.437 100.983 120.485 99.2754C120.58 96.4705 122.668 94.641 125.989 94.519C126.938 94.519 127.887 94.5597 128.836 94.5597Z" fill="#2193F7"/>
<path d="M128.832 74.1666C129.876 74.1666 130.872 74.1201 131.916 74.1666C134.763 74.3524 136.803 76.2573 136.946 79.0449C137.088 81.2285 137.041 83.3657 136.946 85.5493C136.803 88.2439 134.858 90.1488 132.106 90.3346C129.923 90.474 127.693 90.474 125.463 90.3346C122.663 90.1953 120.623 88.151 120.48 85.3634C120.385 83.4121 120.433 81.5073 120.48 79.5559C120.575 76.3502 122.663 74.2595 125.985 74.1201C126.934 74.1201 127.883 74.1666 128.832 74.1666Z" fill="#2193F7"/>
<path d="M128.836 53.7584C129.88 53.7584 130.876 53.7119 131.92 53.7584C134.767 53.9442 136.808 55.8491 136.95 58.6367C137.093 60.8203 137.045 62.9575 136.95 65.1411C136.808 67.8357 134.863 69.7406 132.11 69.9264C129.928 70.0658 127.697 70.0658 125.467 69.9264C122.668 69.7871 120.627 67.7428 120.485 64.9552C120.39 63.0039 120.437 61.0991 120.485 59.1477C120.58 55.942 122.668 53.8513 125.989 53.7119C126.938 53.7119 127.887 53.7584 128.836 53.7584Z" fill="#2193F7"/>
<path d="M151.675 78.2413C152.719 78.2413 153.716 78.1948 154.76 78.2413C157.607 78.4271 159.647 80.3319 159.79 83.1195C159.932 85.3031 159.884 87.4402 159.79 89.6238C159.647 92.3186 157.702 94.2236 154.95 94.4092C152.767 94.5485 150.537 94.5485 148.307 94.4092C145.507 94.27 143.466 92.2253 143.324 89.438C143.229 87.4867 143.276 85.5818 143.324 83.6305C143.419 80.4248 145.507 78.3342 148.828 78.1948C149.777 78.1948 150.727 78.2413 151.675 78.2413Z" fill="#2193F7"/>
<path d="M128.832 174.1C129.876 174.1 130.872 174.054 131.916 174.1C134.763 174.286 136.803 176.191 136.946 178.978C137.088 181.162 137.041 183.299 136.946 185.483C136.803 188.177 134.858 190.082 132.106 190.268C129.923 190.407 127.693 190.407 125.463 190.268C122.663 190.129 120.623 188.085 120.48 185.297C120.385 183.345 120.433 181.441 120.48 179.489C120.575 176.284 122.663 174.193 125.985 174.054C126.934 174.054 127.883 174.054 128.832 174.1Z" fill="#2193F7"/>
<path d="M197.354 78.2413C198.398 78.2413 199.394 78.1948 200.439 78.2413C203.285 78.4271 205.326 80.3319 205.468 83.1195C205.611 85.3031 205.563 87.4402 205.468 89.6238C205.326 92.3186 203.38 94.2236 200.628 94.4092C198.445 94.5485 196.215 94.5485 193.985 94.4092C191.186 94.27 189.145 92.2253 189.003 89.438C188.908 87.4867 188.955 85.5818 189.003 83.6305C189.097 80.4248 191.186 78.3342 194.507 78.1948C195.456 78.1948 196.405 78.2413 197.354 78.2413Z" fill="#2193F7"/>
<path d="M197.354 98.6406C198.398 98.6406 199.394 98.5942 200.439 98.6406C203.285 98.8267 205.326 100.731 205.468 103.519C205.611 105.702 205.563 107.84 205.468 110.023C205.326 112.718 203.38 114.623 200.628 114.809C198.445 114.948 196.215 114.948 193.985 114.809C191.186 114.669 189.145 112.625 189.003 109.837C188.908 107.886 188.955 105.981 189.003 104.03C189.097 100.825 191.186 98.7335 194.507 98.5942C195.456 98.5942 196.405 98.5942 197.354 98.6406Z" fill="#2193F7"/>
<path d="M197.354 182.267C198.398 182.267 199.394 182.22 200.439 182.267C203.285 182.453 205.326 184.358 205.468 187.145C205.611 189.329 205.563 191.466 205.468 193.649C205.326 196.344 203.38 198.249 200.628 198.435C198.445 198.574 196.215 198.574 193.985 198.435C191.186 198.295 189.145 196.251 189.003 193.464C188.908 191.512 188.955 189.607 189.003 187.656C189.097 184.451 191.186 182.36 194.507 182.22C195.456 182.22 196.405 182.267 197.354 182.267Z" fill="#2193F7"/>
<path d="M174.51 129.244C175.554 129.244 176.551 129.197 177.595 129.244C180.442 129.43 182.482 131.335 182.624 134.122C182.767 136.306 182.72 138.443 182.624 140.627C182.482 143.321 180.537 145.226 177.785 145.412C175.602 145.551 173.371 145.551 171.141 145.412C168.342 145.272 166.301 143.228 166.159 140.441C166.064 138.489 166.111 136.584 166.159 134.633C166.254 131.428 168.342 129.337 171.663 129.197C172.612 129.197 173.561 129.244 174.51 129.244Z" fill="#2193F7"/>
<path d="M151.671 98.6406C152.715 98.6406 153.711 98.5942 154.755 98.6406C157.602 98.8267 159.643 100.731 159.785 103.519C159.927 105.702 159.88 107.84 159.785 110.023C159.643 112.718 157.697 114.623 154.945 114.809C152.762 114.948 150.532 114.948 148.302 114.809C145.502 114.669 143.462 112.625 143.32 109.837C143.225 107.886 143.272 105.981 143.32 104.03C143.415 100.825 145.502 98.7335 148.824 98.5942C149.773 98.5942 150.722 98.5942 151.671 98.6406Z" fill="#2193F7"/>
<path d="M173.371 102.669C177.385 102.669 180.638 99.4728 180.638 95.5297C180.638 91.5866 177.385 88.3901 173.371 88.3901C169.358 88.3901 166.104 91.5866 166.104 95.5297C166.104 99.4728 169.358 102.669 173.371 102.669Z" fill="#2193F7"/>
<path d="M65.7714 106.761V114.28C65.7714 114.28 31.4291 140.779 34.7525 165.15C39.1838 197.719 82.4808 199.259 122.501 190.29V197.402C122.501 197.402 53.8161 210.357 33.6447 184.039C13.5195 157.676 43.3843 123.159 65.7714 106.761Z" fill="#2193F7"/>
<path d="M66.63 84.3242V91.4372C66.63 91.4372 1.97338 143.964 12.8571 180.304C23.7409 216.644 83.1404 230.323 174.407 190.745V196.034C174.407 196.034 47.1684 255.537 5.75504 197.858C5.75504 197.904 -27.6802 155.317 66.63 84.3242Z" fill="#2193F7"/>
<path d="M147.422 61.5555V72.3046C147.422 72.3046 196.736 58.6075 225.59 79.9242C254.445 101.241 216.783 137.434 216.783 137.434V155.712C216.783 155.712 288.895 114.621 268.298 75.7969C245.178 32.2563 148.523 60.8299 147.422 61.5555Z" fill="#2193F7"/>
</g>
<defs>
<clipPath id="clip0_9375_15220">
<rect width="272" height="176.8" fill="white" transform="translate(0 47.6001)"/>
</clipPath>
</defs>
</svg>
