<svg width="299" height="299" viewBox="0 0 299 299" fill="none" xmlns="http://www.w3.org/2000/svg">
<path d="M281.06 152.615C281.06 142.897 280.188 133.553 278.568 124.583H149.5V177.656H223.253C220.014 194.724 210.297 209.176 195.72 218.893V253.403H240.197C266.11 229.483 281.06 194.35 281.06 152.615Z" fill="#4285F4"/>
<path d="M149.5 286.542C186.501 286.542 217.523 274.333 240.197 253.403L195.72 218.893C183.511 227.116 167.938 232.099 149.5 232.099C113.869 232.099 83.5954 208.054 72.7567 175.663H27.1592V211.044C49.7088 255.77 95.9292 286.542 149.5 286.542Z" fill="#34A853"/>
<path d="M72.7566 175.538C70.0158 167.316 68.3962 158.595 68.3962 149.5C68.3962 140.406 70.0158 131.685 72.7566 123.462V88.0806H27.1591C17.8153 106.519 12.4583 127.324 12.4583 149.5C12.4583 171.676 17.8153 192.481 27.1591 210.92L62.6653 183.262L72.7566 175.538Z" fill="#FBBC05"/>
<path d="M149.5 67.026C169.683 67.026 187.622 74.0027 201.95 87.4577L241.193 48.2139C217.398 26.0381 186.501 12.4585 149.5 12.4585C95.9292 12.4585 49.7088 43.2306 27.1592 88.0806L72.7567 123.462C83.5954 91.0706 113.869 67.026 149.5 67.026Z" fill="#EA4335"/>
</svg>
